<?xml version="1.0" encoding="UTF-8" standalone="no"?>
<!DOCTYPE svg PUBLIC "-//W3C//DTD SVG 1.1//EN"
 "http://www.w3.org/Graphics/SVG/1.1/DTD/svg11.dtd">
<!-- Generated by graphviz version 2.40.1 (20161225.0304)
 -->
<!-- Title: dependency&#45;cruiser output Pages: 1 -->
<svg width="661pt" height="997pt"
 viewBox="0.00 0.00 660.56 996.50" xmlns="http://www.w3.org/2000/svg" xmlns:xlink="http://www.w3.org/1999/xlink">
<g id="graph0" class="graph" transform="scale(1 1) rotate(0) translate(4 992.5)">
<title>dependency&#45;cruiser output</title>
<polygon fill="#ffffff" stroke="transparent" points="-4,4 -4,-992.5 656.5557,-992.5 656.5557,4 -4,4"/>
<g id="clust1" class="cluster">
<title>cluster_/main</title>
<path fill="none" stroke="#000000" stroke-width="2" d="M110,-886.5C110,-886.5 343.5188,-886.5 343.5188,-886.5 349.5188,-886.5 355.5188,-892.5 355.5188,-898.5 355.5188,-898.5 355.5188,-968.5 355.5188,-968.5 355.5188,-974.5 349.5188,-980.5 343.5188,-980.5 343.5188,-980.5 110,-980.5 110,-980.5 104,-980.5 98,-974.5 98,-968.5 98,-968.5 98,-898.5 98,-898.5 98,-892.5 104,-886.5 110,-886.5"/>
<text text-anchor="middle" x="226.7594" y="-969.3" font-family="Helvetica,sans-Serif" font-weight="bold" font-size="9.00" fill="#000000">main</text>
</g>
<g id="clust2" class="cluster">
<title>cluster_/renderer</title>
<path fill="none" stroke="#000000" stroke-width="2" d="M20,-25.5C20,-25.5 574.5557,-25.5 574.5557,-25.5 580.5557,-25.5 586.5557,-31.5 586.5557,-37.5 586.5557,-37.5 586.5557,-729.5 586.5557,-729.5 586.5557,-735.5 580.5557,-741.5 574.5557,-741.5 574.5557,-741.5 20,-741.5 20,-741.5 14,-741.5 8,-735.5 8,-729.5 8,-729.5 8,-37.5 8,-37.5 8,-31.5 14,-25.5 20,-25.5"/>
<text text-anchor="middle" x="297.2778" y="-730.3" font-family="Helvetica,sans-Serif" font-weight="bold" font-size="9.00" fill="#000000">renderer</text>
</g>
<g id="clust3" class="cluster">
<title>cluster_/renderer/elements</title>
<path fill="none" stroke="#000000" stroke-width="2" d="M192,-184.5C192,-184.5 566.5557,-184.5 566.5557,-184.5 572.5557,-184.5 578.5557,-190.5 578.5557,-196.5 578.5557,-196.5 578.5557,-616.5 578.5557,-616.5 578.5557,-622.5 572.5557,-628.5 566.5557,-628.5 566.5557,-628.5 192,-628.5 192,-628.5 186,-628.5 180,-622.5 180,-616.5 180,-616.5 180,-196.5 180,-196.5 180,-190.5 186,-184.5 192,-184.5"/>
<text text-anchor="middle" x="379.2778" y="-617.3" font-family="Helvetica,sans-Serif" font-weight="bold" font-size="9.00" fill="#000000">elements</text>
</g>
<g id="clust4" class="cluster">
<title>cluster_/renderer/elements/button</title>
<path fill="none" stroke="#000000" stroke-width="2" d="M408.7966,-428.5C408.7966,-428.5 558.5557,-428.5 558.5557,-428.5 564.5557,-428.5 570.5557,-434.5 570.5557,-440.5 570.5557,-440.5 570.5557,-467.5 570.5557,-467.5 570.5557,-473.5 564.5557,-479.5 558.5557,-479.5 558.5557,-479.5 408.7966,-479.5 408.7966,-479.5 402.7966,-479.5 396.7966,-473.5 396.7966,-467.5 396.7966,-467.5 396.7966,-440.5 396.7966,-440.5 396.7966,-434.5 402.7966,-428.5 408.7966,-428.5"/>
<text text-anchor="middle" x="483.6761" y="-468.3" font-family="Helvetica,sans-Serif" font-weight="bold" font-size="9.00" fill="#000000">button</text>
</g>
<g id="clust5" class="cluster">
<title>cluster_/renderer/elements/footer</title>
<path fill="none" stroke="#000000" stroke-width="2" d="M297.5188,-552.5C297.5188,-552.5 454.7966,-552.5 454.7966,-552.5 460.7966,-552.5 466.7966,-558.5 466.7966,-564.5 466.7966,-564.5 466.7966,-591.5 466.7966,-591.5 466.7966,-597.5 460.7966,-603.5 454.7966,-603.5 454.7966,-603.5 297.5188,-603.5 297.5188,-603.5 291.5188,-603.5 285.5188,-597.5 285.5188,-591.5 285.5188,-591.5 285.5188,-564.5 285.5188,-564.5 285.5188,-558.5 291.5188,-552.5 297.5188,-552.5"/>
<text text-anchor="middle" x="376.1577" y="-592.3" font-family="Helvetica,sans-Serif" font-weight="bold" font-size="9.00" fill="#000000">footer</text>
</g>
<g id="clust6" class="cluster">
<title>cluster_/renderer/elements/form</title>
<path fill="none" stroke="#000000" stroke-width="2" d="M408.7966,-251.5C408.7966,-251.5 454.7966,-251.5 454.7966,-251.5 460.7966,-251.5 466.7966,-257.5 466.7966,-263.5 466.7966,-263.5 466.7966,-290.5 466.7966,-290.5 466.7966,-296.5 460.7966,-302.5 454.7966,-302.5 454.7966,-302.5 408.7966,-302.5 408.7966,-302.5 402.7966,-302.5 396.7966,-296.5 396.7966,-290.5 396.7966,-290.5 396.7966,-263.5 396.7966,-263.5 396.7966,-257.5 402.7966,-251.5 408.7966,-251.5"/>
<text text-anchor="middle" x="431.7966" y="-291.3" font-family="Helvetica,sans-Serif" font-weight="bold" font-size="9.00" fill="#000000">form</text>
</g>
<g id="clust7" class="cluster">
<title>cluster_/renderer/elements/header</title>
<path fill="none" stroke="#000000" stroke-width="2" d="M200,-310.5C200,-310.5 343.5188,-310.5 343.5188,-310.5 349.5188,-310.5 355.5188,-316.5 355.5188,-322.5 355.5188,-322.5 355.5188,-349.5 355.5188,-349.5 355.5188,-355.5 349.5188,-361.5 343.5188,-361.5 343.5188,-361.5 200,-361.5 200,-361.5 194,-361.5 188,-355.5 188,-349.5 188,-349.5 188,-322.5 188,-322.5 188,-316.5 194,-310.5 200,-310.5"/>
<text text-anchor="middle" x="271.7594" y="-350.3" font-family="Helvetica,sans-Serif" font-weight="bold" font-size="9.00" fill="#000000">header</text>
</g>
<g id="clust8" class="cluster">
<title>cluster_/renderer/elements/icon</title>
<path fill="none" stroke="#000000" stroke-width="2" d="M512.5557,-369.5C512.5557,-369.5 558.5557,-369.5 558.5557,-369.5 564.5557,-369.5 570.5557,-375.5 570.5557,-381.5 570.5557,-381.5 570.5557,-408.5 570.5557,-408.5 570.5557,-414.5 564.5557,-420.5 558.5557,-420.5 558.5557,-420.5 512.5557,-420.5 512.5557,-420.5 506.5557,-420.5 500.5557,-414.5 500.5557,-408.5 500.5557,-408.5 500.5557,-381.5 500.5557,-381.5 500.5557,-375.5 506.5557,-369.5 512.5557,-369.5"/>
<text text-anchor="middle" x="535.5557" y="-409.3" font-family="Helvetica,sans-Serif" font-weight="bold" font-size="9.00" fill="#000000">icon</text>
</g>
<g id="clust9" class="cluster">
<title>cluster_/renderer/elements/loader</title>
<path fill="none" stroke="#000000" stroke-width="2" d="M200,-251.5C200,-251.5 246,-251.5 246,-251.5 252,-251.5 258,-257.5 258,-263.5 258,-263.5 258,-290.5 258,-290.5 258,-296.5 252,-302.5 246,-302.5 246,-302.5 200,-302.5 200,-302.5 194,-302.5 188,-296.5 188,-290.5 188,-290.5 188,-263.5 188,-263.5 188,-257.5 194,-251.5 200,-251.5"/>
<text text-anchor="middle" x="223" y="-291.3" font-family="Helvetica,sans-Serif" font-weight="bold" font-size="9.00" fill="#000000">loader</text>
</g>
<g id="clust10" class="cluster">
<title>cluster_/renderer/elements/search</title>
<path fill="none" stroke="#000000" stroke-width="2" d="M297.5188,-369.5C297.5188,-369.5 454.7966,-369.5 454.7966,-369.5 460.7966,-369.5 466.7966,-375.5 466.7966,-381.5 466.7966,-381.5 466.7966,-408.5 466.7966,-408.5 466.7966,-414.5 460.7966,-420.5 454.7966,-420.5 454.7966,-420.5 297.5188,-420.5 297.5188,-420.5 291.5188,-420.5 285.5188,-414.5 285.5188,-408.5 285.5188,-408.5 285.5188,-381.5 285.5188,-381.5 285.5188,-375.5 291.5188,-369.5 297.5188,-369.5"/>
<text text-anchor="middle" x="376.1577" y="-409.3" font-family="Helvetica,sans-Serif" font-weight="bold" font-size="9.00" fill="#000000">search</text>
</g>
<g id="clust11" class="cluster">
<title>cluster_/renderer/elements/table</title>
<path fill="none" stroke="#000000" stroke-width="2" d="M200,-192.5C200,-192.5 343.5188,-192.5 343.5188,-192.5 349.5188,-192.5 355.5188,-198.5 355.5188,-204.5 355.5188,-204.5 355.5188,-231.5 355.5188,-231.5 355.5188,-237.5 349.5188,-243.5 343.5188,-243.5 343.5188,-243.5 200,-243.5 200,-243.5 194,-243.5 188,-237.5 188,-231.5 188,-231.5 188,-204.5 188,-204.5 188,-198.5 194,-192.5 200,-192.5"/>
<text text-anchor="middle" x="271.7594" y="-232.3" font-family="Helvetica,sans-Serif" font-weight="bold" font-size="9.00" fill="#000000">table</text>
</g>
<g id="clust12" class="cluster">
<title>cluster_/renderer/elements/volume</title>
<path fill="none" stroke="#000000" stroke-width="2" d="M297.5188,-487.5C297.5188,-487.5 454.7966,-487.5 454.7966,-487.5 460.7966,-487.5 466.7966,-493.5 466.7966,-499.5 466.7966,-499.5 466.7966,-526.5 466.7966,-526.5 466.7966,-532.5 460.7966,-538.5 454.7966,-538.5 454.7966,-538.5 297.5188,-538.5 297.5188,-538.5 291.5188,-538.5 285.5188,-532.5 285.5188,-526.5 285.5188,-526.5 285.5188,-499.5 285.5188,-499.5 285.5188,-493.5 291.5188,-487.5 297.5188,-487.5"/>
<text text-anchor="middle" x="376.1577" y="-527.3" font-family="Helvetica,sans-Serif" font-weight="bold" font-size="9.00" fill="#000000">volume</text>
</g>
<g id="clust13" class="cluster">
<title>cluster_/renderer/lib</title>
<path fill="none" stroke="#000000" stroke-width="2" d="M297.2664,-636.5C297.2664,-636.5 468.5557,-636.5 468.5557,-636.5 474.5557,-636.5 480.5557,-642.5 480.5557,-648.5 480.5557,-648.5 480.5557,-704.5 480.5557,-704.5 480.5557,-710.5 474.5557,-716.5 468.5557,-716.5 468.5557,-716.5 297.2664,-716.5 297.2664,-716.5 291.2664,-716.5 285.2664,-710.5 285.2664,-704.5 285.2664,-704.5 285.2664,-648.5 285.2664,-648.5 285.2664,-642.5 291.2664,-636.5 297.2664,-636.5"/>
<text text-anchor="middle" x="382.911" y="-705.3" font-family="Helvetica,sans-Serif" font-weight="bold" font-size="9.00" fill="#000000">lib</text>
</g>
<g id="clust14" class="cluster">
<title>cluster_/renderer/pages</title>
<path fill="none" stroke="#000000" stroke-width="2" d="M102,-33.5C102,-33.5 246,-33.5 246,-33.5 252,-33.5 258,-39.5 258,-45.5 258,-45.5 258,-164.5 258,-164.5 258,-170.5 252,-176.5 246,-176.5 246,-176.5 102,-176.5 102,-176.5 96,-176.5 90,-170.5 90,-164.5 90,-164.5 90,-45.5 90,-45.5 90,-39.5 96,-33.5 102,-33.5"/>
<text text-anchor="middle" x="174" y="-165.3" font-family="Helvetica,sans-Serif" font-weight="bold" font-size="9.00" fill="#000000">pages</text>
</g>
<g id="clust15" class="cluster">
<title>cluster_/renderer/pages/main</title>
<path fill="none" stroke="#000000" stroke-width="2" d="M110,-100.5C110,-100.5 156,-100.5 156,-100.5 162,-100.5 168,-106.5 168,-112.5 168,-112.5 168,-139.5 168,-139.5 168,-145.5 162,-151.5 156,-151.5 156,-151.5 110,-151.5 110,-151.5 104,-151.5 98,-145.5 98,-139.5 98,-139.5 98,-112.5 98,-112.5 98,-106.5 104,-100.5 110,-100.5"/>
<text text-anchor="middle" x="133" y="-140.3" font-family="Helvetica,sans-Serif" font-weight="bold" font-size="9.00" fill="#000000">main</text>
</g>
<g id="clust16" class="cluster">
<title>cluster_/renderer/pages/preferences</title>
<path fill="none" stroke="#000000" stroke-width="2" d="M110,-41.5C110,-41.5 156,-41.5 156,-41.5 162,-41.5 168,-47.5 168,-53.5 168,-53.5 168,-80.5 168,-80.5 168,-86.5 162,-92.5 156,-92.5 156,-92.5 110,-92.5 110,-92.5 104,-92.5 98,-86.5 98,-80.5 98,-80.5 98,-53.5 98,-53.5 98,-47.5 104,-41.5 110,-41.5"/>
<text text-anchor="middle" x="133" y="-81.3" font-family="Helvetica,sans-Serif" font-weight="bold" font-size="9.00" fill="#000000">preferences</text>
</g>
<g id="clust17" class="cluster">
<title>cluster_/renderer/stores</title>
<path fill="none" stroke="#000000" stroke-width="2" d="M110,-607.5C110,-607.5 156,-607.5 156,-607.5 162,-607.5 168,-613.5 168,-619.5 168,-619.5 168,-704.5 168,-704.5 168,-710.5 162,-716.5 156,-716.5 156,-716.5 110,-716.5 110,-716.5 104,-716.5 98,-710.5 98,-704.5 98,-704.5 98,-619.5 98,-619.5 98,-613.5 104,-607.5 110,-607.5"/>
<text text-anchor="middle" x="133" y="-705.3" font-family="Helvetica,sans-Serif" font-weight="bold" font-size="9.00" fill="#000000">stores</text>
</g>
<g id="clust18" class="cluster">
<title>cluster_/test</title>
<path fill="none" stroke="#000000" stroke-width="2" d="M297.5188,-749.5C297.5188,-749.5 343.5188,-749.5 343.5188,-749.5 349.5188,-749.5 355.5188,-755.5 355.5188,-761.5 355.5188,-761.5 355.5188,-788.5 355.5188,-788.5 355.5188,-794.5 349.5188,-800.5 343.5188,-800.5 343.5188,-800.5 297.5188,-800.5 297.5188,-800.5 291.5188,-800.5 285.5188,-794.5 285.5188,-788.5 285.5188,-788.5 285.5188,-761.5 285.5188,-761.5 285.5188,-755.5 291.5188,-749.5 297.5188,-749.5"/>
<text text-anchor="middle" x="320.5188" y="-789.3" font-family="Helvetica,sans-Serif" font-weight="bold" font-size="9.00" fill="#000000">test</text>
</g>
<!-- assert -->
<g id="node1" class="node">
<title>assert</title>
<path fill="#ffffcc" stroke="#c0c0c0" d="M646.889,-395C646.889,-395 604.2223,-395 604.2223,-395 601.389,-395 598.5557,-392.1667 598.5557,-389.3333 598.5557,-389.3333 598.5557,-383.6667 598.5557,-383.6667 598.5557,-380.8333 601.389,-378 604.2223,-378 604.2223,-378 646.889,-378 646.889,-378 649.7223,-378 652.5557,-380.8333 652.5557,-383.6667 652.5557,-383.6667 652.5557,-389.3333 652.5557,-389.3333 652.5557,-392.1667 649.7223,-395 646.889,-395"/>
<text text-anchor="middle" x="625.5557" y="-383.8" font-family="Helvetica,sans-Serif" font-size="9.00" fill="#c0c0c0">assert</text>
</g>
<!-- crypto -->
<g id="node2" class="node">
<title>crypto</title>
<path fill="#ffffcc" stroke="#c0c0c0" d="M453.13,-17C453.13,-17 410.4633,-17 410.4633,-17 407.63,-17 404.7966,-14.1667 404.7966,-11.3333 404.7966,-11.3333 404.7966,-5.6667 404.7966,-5.6667 404.7966,-2.8333 407.63,0 410.4633,0 410.4633,0 453.13,0 453.13,0 455.9633,0 458.7966,-2.8333 458.7966,-5.6667 458.7966,-5.6667 458.7966,-11.3333 458.7966,-11.3333 458.7966,-14.1667 455.9633,-17 453.13,-17"/>
<text text-anchor="middle" x="431.7966" y="-5.8" font-family="Helvetica,sans-Serif" font-size="9.00" fill="#c0c0c0">crypto</text>
</g>
<!-- fs -->
<g id="node3" class="node">
<title>fs</title>
<path fill="#ffffcc" stroke="#c0c0c0" d="M556.889,-767C556.889,-767 514.2223,-767 514.2223,-767 511.389,-767 508.5557,-764.1667 508.5557,-761.3333 508.5557,-761.3333 508.5557,-755.6667 508.5557,-755.6667 508.5557,-752.8333 511.389,-750 514.2223,-750 514.2223,-750 556.889,-750 556.889,-750 559.7223,-750 562.5557,-752.8333 562.5557,-755.6667 562.5557,-755.6667 562.5557,-761.3333 562.5557,-761.3333 562.5557,-764.1667 559.7223,-767 556.889,-767"/>
<text text-anchor="middle" x="535.5557" y="-755.8" font-family="Helvetica,sans-Serif" font-size="9.00" fill="#c0c0c0">fs</text>
</g>
<!-- main/audio.js -->
<g id="node4" class="node">
<title>main/audio.js</title>
<g id="a_node4"><a xlink:href="main/audio.js" xlink:title="audio.js">
<path fill="#ffffcc" stroke="#000000" d="M341.8521,-941C341.8521,-941 299.1855,-941 299.1855,-941 296.3521,-941 293.5188,-938.1667 293.5188,-935.3333 293.5188,-935.3333 293.5188,-929.6667 293.5188,-929.6667 293.5188,-926.8333 296.3521,-924 299.1855,-924 299.1855,-924 341.8521,-924 341.8521,-924 344.6855,-924 347.5188,-926.8333 347.5188,-929.6667 347.5188,-929.6667 347.5188,-935.3333 347.5188,-935.3333 347.5188,-938.1667 344.6855,-941 341.8521,-941"/>
<text text-anchor="middle" x="320.5188" y="-929.8" font-family="Helvetica,sans-Serif" font-size="9.00" fill="#000000">audio.js</text>
</a>
</g>
</g>
<!-- path -->
<g id="node10" class="node">
<title>path</title>
<path fill="#ffffcc" stroke="#c0c0c0" d="M453.13,-824C453.13,-824 410.4633,-824 410.4633,-824 407.63,-824 404.7966,-821.1667 404.7966,-818.3333 404.7966,-818.3333 404.7966,-812.6667 404.7966,-812.6667 404.7966,-809.8333 407.63,-807 410.4633,-807 410.4633,-807 453.13,-807 453.13,-807 455.9633,-807 458.7966,-809.8333 458.7966,-812.6667 458.7966,-812.6667 458.7966,-818.3333 458.7966,-818.3333 458.7966,-821.1667 455.9633,-824 453.13,-824"/>
<text text-anchor="middle" x="431.7966" y="-812.8" font-family="Helvetica,sans-Serif" font-size="9.00" fill="#c0c0c0">path</text>
</g>
<!-- main/audio.js&#45;&gt;path -->
<g id="edge1" class="edge">
<title>main/audio.js&#45;&gt;path</title>
<path fill="none" stroke="#c0c0c0" d="M328.8827,-923.706C347.5014,-904.1299 392.599,-856.7133 416.4376,-831.6488"/>
<polygon fill="#c0c0c0" stroke="#c0c0c0" points="419.2825,-833.7362 423.6381,-824.0781 414.2103,-828.9121 419.2825,-833.7362"/>
</g>
<!-- main/config.js -->
<g id="node5" class="node">
<title>main/config.js</title>
<g id="a_node5"><a xlink:href="main/config.js" xlink:title="config.js">
<path fill="#ffffcc" stroke="#000000" d="M154.3333,-955C154.3333,-955 111.6667,-955 111.6667,-955 108.8333,-955 106,-952.1667 106,-949.3333 106,-949.3333 106,-943.6667 106,-943.6667 106,-940.8333 108.8333,-938 111.6667,-938 111.6667,-938 154.3333,-938 154.3333,-938 157.1667,-938 160,-940.8333 160,-943.6667 160,-943.6667 160,-949.3333 160,-949.3333 160,-952.1667 157.1667,-955 154.3333,-955"/>
<text text-anchor="middle" x="133" y="-943.8" font-family="Helvetica,sans-Serif" font-size="9.00" fill="#000000">config.js</text>
</a>
</g>
</g>
<!-- main/index.js -->
<g id="node6" class="node">
<title>main/index.js</title>
<g id="a_node6"><a xlink:href="main/index.js" xlink:title="index.js">
<path fill="#ffffcc" stroke="#000000" d="M154.3333,-926C154.3333,-926 111.6667,-926 111.6667,-926 108.8333,-926 106,-923.1667 106,-920.3333 106,-920.3333 106,-914.6667 106,-914.6667 106,-911.8333 108.8333,-909 111.6667,-909 111.6667,-909 154.3333,-909 154.3333,-909 157.1667,-909 160,-911.8333 160,-914.6667 160,-914.6667 160,-920.3333 160,-920.3333 160,-923.1667 157.1667,-926 154.3333,-926"/>
<text text-anchor="middle" x="133" y="-914.8" font-family="Helvetica,sans-Serif" font-size="9.00" fill="#000000">index.js</text>
</a>
</g>
</g>
<!-- main/index.js&#45;&gt;main/audio.js -->
<g id="edge2" class="edge">
<title>main/index.js&#45;&gt;main/audio.js</title>
<path fill="none" stroke="#000000" d="M157.2161,-926.0105C161.0034,-927.8583 164.7382,-930.0179 168,-932.5 174.7941,-937.67 172.3051,-943.8017 180,-947.5 215.2094,-964.4225 260.9806,-954.4913 290.5541,-944.5646"/>
<polygon fill="#000000" stroke="#000000" points="292.0477,-947.7482 300.2952,-941.0976 289.7005,-941.1534 292.0477,-947.7482"/>
</g>
<!-- main/menu.js -->
<g id="node7" class="node">
<title>main/menu.js</title>
<g id="a_node7"><a xlink:href="main/menu.js" xlink:title="menu.js">
<path fill="#ffffcc" stroke="#000000" d="M244.3333,-941C244.3333,-941 201.6667,-941 201.6667,-941 198.8333,-941 196,-938.1667 196,-935.3333 196,-935.3333 196,-929.6667 196,-929.6667 196,-926.8333 198.8333,-924 201.6667,-924 201.6667,-924 244.3333,-924 244.3333,-924 247.1667,-924 250,-926.8333 250,-929.6667 250,-929.6667 250,-935.3333 250,-935.3333 250,-938.1667 247.1667,-941 244.3333,-941"/>
<text text-anchor="middle" x="223" y="-929.8" font-family="Helvetica,sans-Serif" font-size="9.00" fill="#000000">menu.js</text>
</a>
</g>
</g>
<!-- main/index.js&#45;&gt;main/menu.js -->
<g id="edge3" class="edge">
<title>main/index.js&#45;&gt;main/menu.js</title>
<path fill="none" stroke="#000000" d="M160.003,-922.0005C168.1158,-923.3526 177.1631,-924.8605 185.8131,-926.3022"/>
<polygon fill="#000000" stroke="#000000" points="185.2657,-929.7591 195.705,-927.9508 186.4165,-922.8544 185.2657,-929.7591"/>
</g>
<!-- main/player.js -->
<g id="node8" class="node">
<title>main/player.js</title>
<g id="a_node8"><a xlink:href="main/player.js" xlink:title="player.js">
<path fill="#ffffcc" stroke="#000000" d="M244.3333,-912C244.3333,-912 201.6667,-912 201.6667,-912 198.8333,-912 196,-909.1667 196,-906.3333 196,-906.3333 196,-900.6667 196,-900.6667 196,-897.8333 198.8333,-895 201.6667,-895 201.6667,-895 244.3333,-895 244.3333,-895 247.1667,-895 250,-897.8333 250,-900.6667 250,-900.6667 250,-906.3333 250,-906.3333 250,-909.1667 247.1667,-912 244.3333,-912"/>
<text text-anchor="middle" x="223" y="-900.8" font-family="Helvetica,sans-Serif" font-size="9.00" fill="#000000">player.js</text>
</a>
</g>
</g>
<!-- main/index.js&#45;&gt;main/player.js -->
<g id="edge4" class="edge">
<title>main/index.js&#45;&gt;main/player.js</title>
<path fill="none" stroke="#000000" d="M160.003,-913.2995C168.1158,-912.0375 177.1631,-910.6302 185.8131,-909.2846"/>
<polygon fill="#000000" stroke="#000000" points="186.3619,-912.7414 195.705,-907.7459 185.2859,-905.8246 186.3619,-912.7414"/>
</g>
<!-- main/menu.js&#45;&gt;main/audio.js -->
<g id="edge6" class="edge">
<title>main/menu.js&#45;&gt;main/audio.js</title>
<path fill="none" stroke="#000000" d="M250.1644,-932.5C260.4144,-932.5 272.26,-932.5 283.2741,-932.5"/>
<polygon fill="#000000" stroke="#000000" points="283.5001,-936.0001 293.5001,-932.5 283.5,-929.0001 283.5001,-936.0001"/>
</g>
<!-- package.json -->
<g id="node9" class="node">
<title>package.json</title>
<g id="a_node9"><a xlink:href="package.json" xlink:title="package.json">
<path fill="#ffffcc" stroke="#000000" d="M349.3897,-878C349.3897,-878 291.6479,-878 291.6479,-878 288.8145,-878 285.9812,-875.1667 285.9812,-872.3333 285.9812,-872.3333 285.9812,-866.6667 285.9812,-866.6667 285.9812,-863.8333 288.8145,-861 291.6479,-861 291.6479,-861 349.3897,-861 349.3897,-861 352.2231,-861 355.0564,-863.8333 355.0564,-866.6667 355.0564,-866.6667 355.0564,-872.3333 355.0564,-872.3333 355.0564,-875.1667 352.2231,-878 349.3897,-878"/>
<text text-anchor="middle" x="320.5188" y="-866.8" font-family="Helvetica,sans-Serif" font-size="9.00" fill="#000000">package.json</text>
</a>
</g>
</g>
<!-- main/menu.js&#45;&gt;package.json -->
<g id="edge5" class="edge">
<title>main/menu.js&#45;&gt;package.json</title>
<path fill="none" stroke="#000000" d="M249.0728,-923.8945C252.2209,-922.3372 255.28,-920.5452 258,-918.5 273.7604,-906.6492 269.4913,-895.3313 285.2664,-883.5 285.352,-883.4358 285.4379,-883.3718 285.5242,-883.3081"/>
<polygon fill="#000000" stroke="#000000" points="287.47,-886.2227 294.2577,-878.0877 283.8785,-880.2143 287.47,-886.2227"/>
</g>
<!-- main/player.js&#45;&gt;path -->
<g id="edge7" class="edge">
<title>main/player.js&#45;&gt;path</title>
<path fill="none" stroke="#c0c0c0" d="M231.9231,-894.765C243.3642,-884.0299 264.2467,-865.9563 285.2664,-855.5 320.3255,-838.0596 364.0136,-827.3935 394.5244,-821.5108"/>
<polygon fill="#c0c0c0" stroke="#c0c0c0" points="395.5329,-824.8839 404.7311,-819.6263 394.2618,-818.0002 395.5329,-824.8839"/>
</g>
<!-- renderer/audio.js -->
<g id="node11" class="node">
<title>renderer/audio.js</title>
<g id="a_node11"><a xlink:href="renderer/audio.js" xlink:title="audio.js">
<path fill="#ffffcc" stroke="#000000" d="M64.3333,-716C64.3333,-716 21.6667,-716 21.6667,-716 18.8333,-716 16,-713.1667 16,-710.3333 16,-710.3333 16,-704.6667 16,-704.6667 16,-701.8333 18.8333,-699 21.6667,-699 21.6667,-699 64.3333,-699 64.3333,-699 67.1667,-699 70,-701.8333 70,-704.6667 70,-704.6667 70,-710.3333 70,-710.3333 70,-713.1667 67.1667,-716 64.3333,-716"/>
<text text-anchor="middle" x="43" y="-704.8" font-family="Helvetica,sans-Serif" font-size="9.00" fill="#000000">audio.js</text>
</a>
</g>
</g>
<!-- renderer/audio.js&#45;&gt;path -->
<g id="edge8" class="edge">
<title>renderer/audio.js&#45;&gt;path</title>
<path fill="none" stroke="#c0c0c0" d="M59.4804,-716.0249C97.8666,-735.4301 196.7143,-782.8134 285.2664,-803.5 321.8409,-812.0442 364.7828,-814.7307 394.6878,-815.4706"/>
<polygon fill="#c0c0c0" stroke="#c0c0c0" points="394.6264,-818.9699 404.69,-815.6575 394.7572,-811.9712 394.6264,-818.9699"/>
</g>
<!-- renderer/elements/button/index.js -->
<g id="node12" class="node">
<title>renderer/elements/button/index.js</title>
<g id="a_node12"><a xlink:href="renderer/elements/button/index.js" xlink:title="index.js">
<path fill="#ffffcc" stroke="#000000" d="M453.13,-454C453.13,-454 410.4633,-454 410.4633,-454 407.63,-454 404.7966,-451.1667 404.7966,-448.3333 404.7966,-448.3333 404.7966,-442.6667 404.7966,-442.6667 404.7966,-439.8333 407.63,-437 410.4633,-437 410.4633,-437 453.13,-437 453.13,-437 455.9633,-437 458.7966,-439.8333 458.7966,-442.6667 458.7966,-442.6667 458.7966,-448.3333 458.7966,-448.3333 458.7966,-451.1667 455.9633,-454 453.13,-454"/>
<text text-anchor="middle" x="431.7966" y="-442.8" font-family="Helvetica,sans-Serif" font-size="9.00" fill="#000000">index.js</text>
</a>
</g>
</g>
<!-- renderer/elements/button/styles.js -->
<g id="node13" class="node">
<title>renderer/elements/button/styles.js</title>
<g id="a_node13"><a xlink:href="renderer/elements/button/styles.js" xlink:title="styles.js">
<path fill="#ffffcc" stroke="#000000" d="M556.889,-454C556.889,-454 514.2223,-454 514.2223,-454 511.389,-454 508.5557,-451.1667 508.5557,-448.3333 508.5557,-448.3333 508.5557,-442.6667 508.5557,-442.6667 508.5557,-439.8333 511.389,-437 514.2223,-437 514.2223,-437 556.889,-437 556.889,-437 559.7223,-437 562.5557,-439.8333 562.5557,-442.6667 562.5557,-442.6667 562.5557,-448.3333 562.5557,-448.3333 562.5557,-451.1667 559.7223,-454 556.889,-454"/>
<text text-anchor="middle" x="535.5557" y="-442.8" font-family="Helvetica,sans-Serif" font-size="9.00" fill="#000000">styles.js</text>
</a>
</g>
</g>
<!-- renderer/elements/button/index.js&#45;&gt;renderer/elements/button/styles.js -->
<g id="edge10" class="edge">
<title>renderer/elements/button/index.js&#45;&gt;renderer/elements/button/styles.js</title>
<path fill="none" stroke="#000000" d="M459.0581,-445.5C471.092,-445.5 485.4265,-445.5 498.4165,-445.5"/>
<polygon fill="#000000" stroke="#000000" points="498.4763,-449.0001 508.4763,-445.5 498.4762,-442.0001 498.4763,-449.0001"/>
</g>
<!-- renderer/elements/icon/index.js -->
<g id="node19" class="node">
<title>renderer/elements/icon/index.js</title>
<g id="a_node19"><a xlink:href="renderer/elements/icon/index.js" xlink:title="index.js">
<path fill="#ffffcc" stroke="#000000" d="M556.889,-395C556.889,-395 514.2223,-395 514.2223,-395 511.389,-395 508.5557,-392.1667 508.5557,-389.3333 508.5557,-389.3333 508.5557,-383.6667 508.5557,-383.6667 508.5557,-380.8333 511.389,-378 514.2223,-378 514.2223,-378 556.889,-378 556.889,-378 559.7223,-378 562.5557,-380.8333 562.5557,-383.6667 562.5557,-383.6667 562.5557,-389.3333 562.5557,-389.3333 562.5557,-392.1667 559.7223,-395 556.889,-395"/>
<text text-anchor="middle" x="535.5557" y="-383.8" font-family="Helvetica,sans-Serif" font-size="9.00" fill="#000000">index.js</text>
</a>
</g>
</g>
<!-- renderer/elements/button/index.js&#45;&gt;renderer/elements/icon/index.js -->
<g id="edge9" class="edge">
<title>renderer/elements/button/index.js&#45;&gt;renderer/elements/icon/index.js</title>
<path fill="none" stroke="#000000" d="M453.0569,-436.8349C461.7452,-433.0569 471.7925,-428.379 480.5557,-423.5 492.6875,-416.7455 505.601,-408.1389 515.8645,-400.9265"/>
<polygon fill="#000000" stroke="#000000" points="518.0153,-403.6913 524.1154,-395.0288 513.9447,-397.9966 518.0153,-403.6913"/>
</g>
<!-- renderer/elements/footer/index.js -->
<g id="node14" class="node">
<title>renderer/elements/footer/index.js</title>
<g id="a_node14"><a xlink:href="renderer/elements/footer/index.js" xlink:title="index.js">
<path fill="#ffffcc" stroke="#000000" d="M341.8521,-578C341.8521,-578 299.1855,-578 299.1855,-578 296.3521,-578 293.5188,-575.1667 293.5188,-572.3333 293.5188,-572.3333 293.5188,-566.6667 293.5188,-566.6667 293.5188,-563.8333 296.3521,-561 299.1855,-561 299.1855,-561 341.8521,-561 341.8521,-561 344.6855,-561 347.5188,-563.8333 347.5188,-566.6667 347.5188,-566.6667 347.5188,-572.3333 347.5188,-572.3333 347.5188,-575.1667 344.6855,-578 341.8521,-578"/>
<text text-anchor="middle" x="320.5188" y="-566.8" font-family="Helvetica,sans-Serif" font-size="9.00" fill="#000000">index.js</text>
</a>
</g>
</g>
<!-- renderer/elements/footer/index.js&#45;&gt;renderer/elements/button/index.js -->
<g id="edge12" class="edge">
<title>renderer/elements/footer/index.js&#45;&gt;renderer/elements/button/index.js</title>
<path fill="none" stroke="#000000" d="M333.3895,-560.8411C340.4243,-555.7256 349.0047,-548.8281 355.5188,-541.5 375.3499,-519.1907 372.214,-507.6657 391.0376,-484.5 397.841,-476.1272 406.3362,-467.7389 413.8076,-460.8987"/>
<polygon fill="#000000" stroke="#000000" points="416.2395,-463.4198 421.3845,-454.158 411.5867,-458.1899 416.2395,-463.4198"/>
</g>
<!-- renderer/elements/footer/index.js&#45;&gt;renderer/elements/button/styles.js -->
<g id="edge13" class="edge">
<title>renderer/elements/footer/index.js&#45;&gt;renderer/elements/button/styles.js</title>
<path fill="none" stroke="#000000" d="M347.5945,-563.8558C360.6929,-561.1941 376.6584,-558.0506 391.0376,-555.5 430.688,-548.4666 447.3844,-564.3319 480.5557,-541.5 507.7504,-522.7818 523.2206,-485.9249 530.4513,-463.7229"/>
<polygon fill="#000000" stroke="#000000" points="533.8032,-464.73 533.3543,-454.1447 527.1042,-462.6996 533.8032,-464.73"/>
</g>
<!-- renderer/elements/footer/styles.js -->
<g id="node15" class="node">
<title>renderer/elements/footer/styles.js</title>
<g id="a_node15"><a xlink:href="renderer/elements/footer/styles.js" xlink:title="styles.js">
<path fill="#ffffcc" stroke="#000000" d="M453.13,-578C453.13,-578 410.4633,-578 410.4633,-578 407.63,-578 404.7966,-575.1667 404.7966,-572.3333 404.7966,-572.3333 404.7966,-566.6667 404.7966,-566.6667 404.7966,-563.8333 407.63,-561 410.4633,-561 410.4633,-561 453.13,-561 453.13,-561 455.9633,-561 458.7966,-563.8333 458.7966,-566.6667 458.7966,-566.6667 458.7966,-572.3333 458.7966,-572.3333 458.7966,-575.1667 455.9633,-578 453.13,-578"/>
<text text-anchor="middle" x="431.7966" y="-566.8" font-family="Helvetica,sans-Serif" font-size="9.00" fill="#000000">styles.js</text>
</a>
</g>
</g>
<!-- renderer/elements/footer/index.js&#45;&gt;renderer/elements/footer/styles.js -->
<g id="edge14" class="edge">
<title>renderer/elements/footer/index.js&#45;&gt;renderer/elements/footer/styles.js</title>
<path fill="none" stroke="#000000" d="M347.7404,-569.5C361.7511,-569.5 379.0481,-569.5 394.3019,-569.5"/>
<polygon fill="#000000" stroke="#000000" points="394.4704,-573.0001 404.4704,-569.5 394.4703,-566.0001 394.4704,-573.0001"/>
</g>
<!-- renderer/lib/artwork&#45;cache.js -->
<g id="node28" class="node">
<title>renderer/lib/artwork&#45;cache.js</title>
<g id="a_node28"><a xlink:href="renderer/lib/artwork-cache.js" xlink:title="artwork&#45;cache.js">
<path fill="#ffffcc" stroke="#000000" d="M466.6494,-662C466.6494,-662 396.9438,-662 396.9438,-662 394.1105,-662 391.2771,-659.1667 391.2771,-656.3333 391.2771,-656.3333 391.2771,-650.6667 391.2771,-650.6667 391.2771,-647.8333 394.1105,-645 396.9438,-645 396.9438,-645 466.6494,-645 466.6494,-645 469.4828,-645 472.3161,-647.8333 472.3161,-650.6667 472.3161,-650.6667 472.3161,-656.3333 472.3161,-656.3333 472.3161,-659.1667 469.4828,-662 466.6494,-662"/>
<text text-anchor="middle" x="431.7966" y="-650.8" font-family="Helvetica,sans-Serif" font-size="9.00" fill="#000000">artwork&#45;cache.js</text>
</a>
</g>
</g>
<!-- renderer/elements/footer/index.js&#45;&gt;renderer/lib/artwork&#45;cache.js -->
<g id="edge11" class="edge">
<title>renderer/elements/footer/index.js&#45;&gt;renderer/lib/artwork&#45;cache.js</title>
<path fill="none" stroke="#000000" d="M332.0084,-578.1731C351.0148,-592.5204 389.2045,-621.3486 412.4354,-638.8849"/>
<polygon fill="#000000" stroke="#000000" points="410.4453,-641.7678 420.5353,-644.9992 414.6627,-636.1809 410.4453,-641.7678"/>
</g>
<!-- renderer/elements/form/styles.js -->
<g id="node16" class="node">
<title>renderer/elements/form/styles.js</title>
<g id="a_node16"><a xlink:href="renderer/elements/form/styles.js" xlink:title="styles.js">
<path fill="#ffffcc" stroke="#000000" d="M453.13,-277C453.13,-277 410.4633,-277 410.4633,-277 407.63,-277 404.7966,-274.1667 404.7966,-271.3333 404.7966,-271.3333 404.7966,-265.6667 404.7966,-265.6667 404.7966,-262.8333 407.63,-260 410.4633,-260 410.4633,-260 453.13,-260 453.13,-260 455.9633,-260 458.7966,-262.8333 458.7966,-265.6667 458.7966,-265.6667 458.7966,-271.3333 458.7966,-271.3333 458.7966,-274.1667 455.9633,-277 453.13,-277"/>
<text text-anchor="middle" x="431.7966" y="-265.8" font-family="Helvetica,sans-Serif" font-size="9.00" fill="#000000">styles.js</text>
</a>
</g>
</g>
<!-- renderer/elements/header/index.js -->
<g id="node17" class="node">
<title>renderer/elements/header/index.js</title>
<g id="a_node17"><a xlink:href="renderer/elements/header/index.js" xlink:title="index.js">
<path fill="#ffffcc" stroke="#000000" d="M244.3333,-336C244.3333,-336 201.6667,-336 201.6667,-336 198.8333,-336 196,-333.1667 196,-330.3333 196,-330.3333 196,-324.6667 196,-324.6667 196,-321.8333 198.8333,-319 201.6667,-319 201.6667,-319 244.3333,-319 244.3333,-319 247.1667,-319 250,-321.8333 250,-324.6667 250,-324.6667 250,-330.3333 250,-330.3333 250,-333.1667 247.1667,-336 244.3333,-336"/>
<text text-anchor="middle" x="223" y="-324.8" font-family="Helvetica,sans-Serif" font-size="9.00" fill="#000000">index.js</text>
</a>
</g>
</g>
<!-- renderer/elements/header/index.js&#45;&gt;renderer/elements/button/index.js -->
<g id="edge15" class="edge">
<title>renderer/elements/header/index.js&#45;&gt;renderer/elements/button/index.js</title>
<path fill="none" stroke="#000000" d="M225.8401,-336.183C232.6486,-355.4938 251.8644,-401.9859 285.2664,-423.5 317.909,-444.525 362.9975,-448.4052 394.5082,-448.0488"/>
<polygon fill="#000000" stroke="#000000" points="394.7311,-451.5442 404.6363,-447.7841 394.5482,-444.5466 394.7311,-451.5442"/>
</g>
<!-- renderer/elements/header/styles.js -->
<g id="node18" class="node">
<title>renderer/elements/header/styles.js</title>
<g id="a_node18"><a xlink:href="renderer/elements/header/styles.js" xlink:title="styles.js">
<path fill="#ffffcc" stroke="#000000" d="M341.8521,-336C341.8521,-336 299.1855,-336 299.1855,-336 296.3521,-336 293.5188,-333.1667 293.5188,-330.3333 293.5188,-330.3333 293.5188,-324.6667 293.5188,-324.6667 293.5188,-321.8333 296.3521,-319 299.1855,-319 299.1855,-319 341.8521,-319 341.8521,-319 344.6855,-319 347.5188,-321.8333 347.5188,-324.6667 347.5188,-324.6667 347.5188,-330.3333 347.5188,-330.3333 347.5188,-333.1667 344.6855,-336 341.8521,-336"/>
<text text-anchor="middle" x="320.5188" y="-324.8" font-family="Helvetica,sans-Serif" font-size="9.00" fill="#000000">styles.js</text>
</a>
</g>
</g>
<!-- renderer/elements/header/index.js&#45;&gt;renderer/elements/header/styles.js -->
<g id="edge18" class="edge">
<title>renderer/elements/header/index.js&#45;&gt;renderer/elements/header/styles.js</title>
<path fill="none" stroke="#000000" d="M250.1644,-327.5C260.4144,-327.5 272.26,-327.5 283.2741,-327.5"/>
<polygon fill="#000000" stroke="#000000" points="283.5001,-331.0001 293.5001,-327.5 283.5,-324.0001 283.5001,-331.0001"/>
</g>
<!-- renderer/elements/search/index.js -->
<g id="node21" class="node">
<title>renderer/elements/search/index.js</title>
<g id="a_node21"><a xlink:href="renderer/elements/search/index.js" xlink:title="index.js">
<path fill="#ffffcc" stroke="#000000" d="M341.8521,-395C341.8521,-395 299.1855,-395 299.1855,-395 296.3521,-395 293.5188,-392.1667 293.5188,-389.3333 293.5188,-389.3333 293.5188,-383.6667 293.5188,-383.6667 293.5188,-380.8333 296.3521,-378 299.1855,-378 299.1855,-378 341.8521,-378 341.8521,-378 344.6855,-378 347.5188,-380.8333 347.5188,-383.6667 347.5188,-383.6667 347.5188,-389.3333 347.5188,-389.3333 347.5188,-392.1667 344.6855,-395 341.8521,-395"/>
<text text-anchor="middle" x="320.5188" y="-383.8" font-family="Helvetica,sans-Serif" font-size="9.00" fill="#000000">index.js</text>
</a>
</g>
</g>
<!-- renderer/elements/header/index.js&#45;&gt;renderer/elements/search/index.js -->
<g id="edge16" class="edge">
<title>renderer/elements/header/index.js&#45;&gt;renderer/elements/search/index.js</title>
<path fill="none" stroke="#000000" d="M237.3892,-336.2057C253.2526,-345.8032 278.9913,-361.3754 297.6303,-372.6522"/>
<polygon fill="#000000" stroke="#000000" points="296.0198,-375.7685 306.3876,-377.9505 299.6434,-369.7794 296.0198,-375.7685"/>
</g>
<!-- renderer/elements/volume/index.js -->
<g id="node25" class="node">
<title>renderer/elements/volume/index.js</title>
<g id="a_node25"><a xlink:href="renderer/elements/volume/index.js" xlink:title="index.js">
<path fill="#ffffcc" stroke="#000000" d="M341.8521,-513C341.8521,-513 299.1855,-513 299.1855,-513 296.3521,-513 293.5188,-510.1667 293.5188,-507.3333 293.5188,-507.3333 293.5188,-501.6667 293.5188,-501.6667 293.5188,-498.8333 296.3521,-496 299.1855,-496 299.1855,-496 341.8521,-496 341.8521,-496 344.6855,-496 347.5188,-498.8333 347.5188,-501.6667 347.5188,-501.6667 347.5188,-507.3333 347.5188,-507.3333 347.5188,-510.1667 344.6855,-513 341.8521,-513"/>
<text text-anchor="middle" x="320.5188" y="-501.8" font-family="Helvetica,sans-Serif" font-size="9.00" fill="#000000">index.js</text>
</a>
</g>
</g>
<!-- renderer/elements/header/index.js&#45;&gt;renderer/elements/volume/index.js -->
<g id="edge17" class="edge">
<title>renderer/elements/header/index.js&#45;&gt;renderer/elements/volume/index.js</title>
<path fill="none" stroke="#000000" d="M227.6567,-336.0969C237.9718,-355.1244 263.5529,-402.2252 285.2664,-441.5 293.7836,-456.9059 303.5664,-474.3707 310.6622,-486.998"/>
<polygon fill="#000000" stroke="#000000" points="307.748,-488.9562 315.7014,-495.9558 313.8489,-485.5242 307.748,-488.9562"/>
</g>
<!-- renderer/elements/icon/index.js&#45;&gt;assert -->
<g id="edge19" class="edge">
<title>renderer/elements/icon/index.js&#45;&gt;assert</title>
<path fill="none" stroke="#c0c0c0" d="M562.5586,-386.5C570.5833,-386.5 579.5222,-386.5 588.0865,-386.5"/>
<polygon fill="#c0c0c0" stroke="#c0c0c0" points="588.2607,-390.0001 598.2607,-386.5 588.2607,-383.0001 588.2607,-390.0001"/>
</g>
<!-- renderer/elements/loader/style.js -->
<g id="node20" class="node">
<title>renderer/elements/loader/style.js</title>
<g id="a_node20"><a xlink:href="renderer/elements/loader/style.js" xlink:title="style.js">
<path fill="#ffffcc" stroke="#000000" d="M244.3333,-277C244.3333,-277 201.6667,-277 201.6667,-277 198.8333,-277 196,-274.1667 196,-271.3333 196,-271.3333 196,-265.6667 196,-265.6667 196,-262.8333 198.8333,-260 201.6667,-260 201.6667,-260 244.3333,-260 244.3333,-260 247.1667,-260 250,-262.8333 250,-265.6667 250,-265.6667 250,-271.3333 250,-271.3333 250,-274.1667 247.1667,-277 244.3333,-277"/>
<text text-anchor="middle" x="223" y="-265.8" font-family="Helvetica,sans-Serif" font-size="9.00" fill="#000000">style.js</text>
</a>
</g>
</g>
<!-- renderer/elements/search/index.js&#45;&gt;renderer/elements/form/styles.js -->
<g id="edge20" class="edge">
<title>renderer/elements/search/index.js&#45;&gt;renderer/elements/form/styles.js</title>
<path fill="none" stroke="#000000" d="M336.6485,-377.919C342.8763,-374.219 349.8511,-369.5749 355.5188,-364.5 382.3524,-340.4729 407.037,-306.2692 420.691,-285.8377"/>
<polygon fill="#000000" stroke="#000000" points="423.7575,-287.5438 426.3129,-277.2618 417.9033,-283.7061 423.7575,-287.5438"/>
</g>
<!-- renderer/elements/search/styles.js -->
<g id="node22" class="node">
<title>renderer/elements/search/styles.js</title>
<g id="a_node22"><a xlink:href="renderer/elements/search/styles.js" xlink:title="styles.js">
<path fill="#ffffcc" stroke="#000000" d="M453.13,-395C453.13,-395 410.4633,-395 410.4633,-395 407.63,-395 404.7966,-392.1667 404.7966,-389.3333 404.7966,-389.3333 404.7966,-383.6667 404.7966,-383.6667 404.7966,-380.8333 407.63,-378 410.4633,-378 410.4633,-378 453.13,-378 453.13,-378 455.9633,-378 458.7966,-380.8333 458.7966,-383.6667 458.7966,-383.6667 458.7966,-389.3333 458.7966,-389.3333 458.7966,-392.1667 455.9633,-395 453.13,-395"/>
<text text-anchor="middle" x="431.7966" y="-383.8" font-family="Helvetica,sans-Serif" font-size="9.00" fill="#000000">styles.js</text>
</a>
</g>
</g>
<!-- renderer/elements/search/index.js&#45;&gt;renderer/elements/search/styles.js -->
<g id="edge21" class="edge">
<title>renderer/elements/search/index.js&#45;&gt;renderer/elements/search/styles.js</title>
<path fill="none" stroke="#000000" d="M347.7404,-386.5C361.7511,-386.5 379.0481,-386.5 394.3019,-386.5"/>
<polygon fill="#000000" stroke="#000000" points="394.4704,-390.0001 404.4704,-386.5 394.4703,-383.0001 394.4704,-390.0001"/>
</g>
<!-- renderer/elements/table/index.js -->
<g id="node23" class="node">
<title>renderer/elements/table/index.js</title>
<g id="a_node23"><a xlink:href="renderer/elements/table/index.js" xlink:title="index.js">
<path fill="#ffffcc" stroke="#000000" d="M244.3333,-218C244.3333,-218 201.6667,-218 201.6667,-218 198.8333,-218 196,-215.1667 196,-212.3333 196,-212.3333 196,-206.6667 196,-206.6667 196,-203.8333 198.8333,-201 201.6667,-201 201.6667,-201 244.3333,-201 244.3333,-201 247.1667,-201 250,-203.8333 250,-206.6667 250,-206.6667 250,-212.3333 250,-212.3333 250,-215.1667 247.1667,-218 244.3333,-218"/>
<text text-anchor="middle" x="223" y="-206.8" font-family="Helvetica,sans-Serif" font-size="9.00" fill="#000000">index.js</text>
</a>
</g>
</g>
<!-- renderer/elements/table/styles.js -->
<g id="node24" class="node">
<title>renderer/elements/table/styles.js</title>
<g id="a_node24"><a xlink:href="renderer/elements/table/styles.js" xlink:title="styles.js">
<path fill="#ffffcc" stroke="#000000" d="M341.8521,-218C341.8521,-218 299.1855,-218 299.1855,-218 296.3521,-218 293.5188,-215.1667 293.5188,-212.3333 293.5188,-212.3333 293.5188,-206.6667 293.5188,-206.6667 293.5188,-203.8333 296.3521,-201 299.1855,-201 299.1855,-201 341.8521,-201 341.8521,-201 344.6855,-201 347.5188,-203.8333 347.5188,-206.6667 347.5188,-206.6667 347.5188,-212.3333 347.5188,-212.3333 347.5188,-215.1667 344.6855,-218 341.8521,-218"/>
<text text-anchor="middle" x="320.5188" y="-206.8" font-family="Helvetica,sans-Serif" font-size="9.00" fill="#000000">styles.js</text>
</a>
</g>
</g>
<!-- renderer/elements/table/index.js&#45;&gt;renderer/elements/table/styles.js -->
<g id="edge22" class="edge">
<title>renderer/elements/table/index.js&#45;&gt;renderer/elements/table/styles.js</title>
<path fill="none" stroke="#000000" d="M250.1644,-209.5C260.4144,-209.5 272.26,-209.5 283.2741,-209.5"/>
<polygon fill="#000000" stroke="#000000" points="283.5001,-213.0001 293.5001,-209.5 283.5,-206.0001 283.5001,-213.0001"/>
</g>
<!-- renderer/elements/volume/index.js&#45;&gt;renderer/elements/button/index.js -->
<g id="edge23" class="edge">
<title>renderer/elements/volume/index.js&#45;&gt;renderer/elements/button/index.js</title>
<path fill="none" stroke="#000000" d="M336.9382,-495.7943C355.3704,-486.0215 385.4866,-470.0538 406.8359,-458.7343"/>
<polygon fill="#000000" stroke="#000000" points="408.4762,-461.8262 415.6716,-454.0495 405.1971,-455.6417 408.4762,-461.8262"/>
</g>
<!-- renderer/elements/volume/index.js&#45;&gt;renderer/elements/button/styles.js -->
<g id="edge24" class="edge">
<title>renderer/elements/volume/index.js&#45;&gt;renderer/elements/button/styles.js</title>
<path fill="none" stroke="#000000" d="M341.0066,-513.0589C372.755,-524.9164 434.9288,-542.4373 480.5557,-519.5 503.617,-507.9067 519.4479,-481.5586 528.0073,-463.6429"/>
<polygon fill="#000000" stroke="#000000" points="531.2203,-465.0316 532.1105,-454.4742 524.8309,-462.1722 531.2203,-465.0316"/>
</g>
<!-- renderer/elements/volume/styles.js -->
<g id="node26" class="node">
<title>renderer/elements/volume/styles.js</title>
<g id="a_node26"><a xlink:href="renderer/elements/volume/styles.js" xlink:title="styles.js">
<path fill="#ffffcc" stroke="#000000" d="M453.13,-513C453.13,-513 410.4633,-513 410.4633,-513 407.63,-513 404.7966,-510.1667 404.7966,-507.3333 404.7966,-507.3333 404.7966,-501.6667 404.7966,-501.6667 404.7966,-498.8333 407.63,-496 410.4633,-496 410.4633,-496 453.13,-496 453.13,-496 455.9633,-496 458.7966,-498.8333 458.7966,-501.6667 458.7966,-501.6667 458.7966,-507.3333 458.7966,-507.3333 458.7966,-510.1667 455.9633,-513 453.13,-513"/>
<text text-anchor="middle" x="431.7966" y="-501.8" font-family="Helvetica,sans-Serif" font-size="9.00" fill="#000000">styles.js</text>
</a>
</g>
</g>
<!-- renderer/elements/volume/index.js&#45;&gt;renderer/elements/volume/styles.js -->
<g id="edge25" class="edge">
<title>renderer/elements/volume/index.js&#45;&gt;renderer/elements/volume/styles.js</title>
<path fill="none" stroke="#000000" d="M347.7404,-504.5C361.7511,-504.5 379.0481,-504.5 394.3019,-504.5"/>
<polygon fill="#000000" stroke="#000000" points="394.4704,-508.0001 404.4704,-504.5 394.4703,-501.0001 394.4704,-508.0001"/>
</g>
<!-- renderer/index.js -->
<g id="node27" class="node">
<title>renderer/index.js</title>
<g id="a_node27"><a xlink:href="renderer/index.js" xlink:title="index.js">
<path fill="#ffffcc" stroke="#000000" d="M64.3333,-647C64.3333,-647 21.6667,-647 21.6667,-647 18.8333,-647 16,-644.1667 16,-641.3333 16,-641.3333 16,-635.6667 16,-635.6667 16,-632.8333 18.8333,-630 21.6667,-630 21.6667,-630 64.3333,-630 64.3333,-630 67.1667,-630 70,-632.8333 70,-635.6667 70,-635.6667 70,-641.3333 70,-641.3333 70,-644.1667 67.1667,-647 64.3333,-647"/>
<text text-anchor="middle" x="43" y="-635.8" font-family="Helvetica,sans-Serif" font-size="9.00" fill="#000000">index.js</text>
</a>
</g>
</g>
<!-- renderer/pages/main/index.js -->
<g id="node32" class="node">
<title>renderer/pages/main/index.js</title>
<g id="a_node32"><a xlink:href="renderer/pages/main/index.js" xlink:title="index.js">
<path fill="#ffffcc" stroke="#000000" d="M154.3333,-126C154.3333,-126 111.6667,-126 111.6667,-126 108.8333,-126 106,-123.1667 106,-120.3333 106,-120.3333 106,-114.6667 106,-114.6667 106,-111.8333 108.8333,-109 111.6667,-109 111.6667,-109 154.3333,-109 154.3333,-109 157.1667,-109 160,-111.8333 160,-114.6667 160,-114.6667 160,-120.3333 160,-120.3333 160,-123.1667 157.1667,-126 154.3333,-126"/>
<text text-anchor="middle" x="133" y="-114.8" font-family="Helvetica,sans-Serif" font-size="9.00" fill="#000000">index.js</text>
</a>
</g>
</g>
<!-- renderer/index.js&#45;&gt;renderer/pages/main/index.js -->
<g id="edge26" class="edge">
<title>renderer/index.js&#45;&gt;renderer/pages/main/index.js</title>
<path fill="none" stroke="#000000" d="M44.487,-629.8918C54.7568,-570.4413 115.176,-220.6814 129.8094,-135.9702"/>
<polygon fill="#000000" stroke="#000000" points="133.2743,-136.4727 131.5277,-126.0229 126.3765,-135.2811 133.2743,-136.4727"/>
</g>
<!-- renderer/stores/config.js -->
<g id="node35" class="node">
<title>renderer/stores/config.js</title>
<g id="a_node35"><a xlink:href="renderer/stores/config.js" xlink:title="config.js">
<path fill="#ffffcc" stroke="#000000" d="M154.3333,-691C154.3333,-691 111.6667,-691 111.6667,-691 108.8333,-691 106,-688.1667 106,-685.3333 106,-685.3333 106,-679.6667 106,-679.6667 106,-676.8333 108.8333,-674 111.6667,-674 111.6667,-674 154.3333,-674 154.3333,-674 157.1667,-674 160,-676.8333 160,-679.6667 160,-679.6667 160,-685.3333 160,-685.3333 160,-688.1667 157.1667,-691 154.3333,-691"/>
<text text-anchor="middle" x="133" y="-679.8" font-family="Helvetica,sans-Serif" font-size="9.00" fill="#000000">config.js</text>
</a>
</g>
</g>
<!-- renderer/index.js&#45;&gt;renderer/stores/config.js -->
<g id="edge27" class="edge">
<title>renderer/index.js&#45;&gt;renderer/stores/config.js</title>
<path fill="none" stroke="#000000" d="M54.4978,-647.0123C63.7315,-653.5532 77.2216,-662.4618 90,-668.5 92.0186,-669.4539 94.1193,-670.3685 96.2591,-671.241"/>
<polygon fill="#000000" stroke="#000000" points="95.1634,-674.5679 105.756,-674.7862 97.6115,-668.0099 95.1634,-674.5679"/>
</g>
<!-- renderer/stores/library.js -->
<g id="node36" class="node">
<title>renderer/stores/library.js</title>
<g id="a_node36"><a xlink:href="renderer/stores/library.js" xlink:title="library.js">
<path fill="#ffffcc" stroke="#000000" d="M154.3333,-662C154.3333,-662 111.6667,-662 111.6667,-662 108.8333,-662 106,-659.1667 106,-656.3333 106,-656.3333 106,-650.6667 106,-650.6667 106,-647.8333 108.8333,-645 111.6667,-645 111.6667,-645 154.3333,-645 154.3333,-645 157.1667,-645 160,-647.8333 160,-650.6667 160,-650.6667 160,-656.3333 160,-656.3333 160,-659.1667 157.1667,-662 154.3333,-662"/>
<text text-anchor="middle" x="133" y="-650.8" font-family="Helvetica,sans-Serif" font-size="9.00" fill="#000000">library.js</text>
</a>
</g>
</g>
<!-- renderer/index.js&#45;&gt;renderer/stores/library.js -->
<g id="edge28" class="edge">
<title>renderer/index.js&#45;&gt;renderer/stores/library.js</title>
<path fill="none" stroke="#000000" d="M70.003,-643.0005C78.1158,-644.3526 87.1631,-645.8605 95.8131,-647.3022"/>
<polygon fill="#000000" stroke="#000000" points="95.2657,-650.7591 105.705,-648.9508 96.4165,-643.8544 95.2657,-650.7591"/>
</g>
<!-- renderer/stores/player.js -->
<g id="node37" class="node">
<title>renderer/stores/player.js</title>
<g id="a_node37"><a xlink:href="renderer/stores/player.js" xlink:title="player.js">
<path fill="#ffffcc" stroke="#000000" d="M154.3333,-633C154.3333,-633 111.6667,-633 111.6667,-633 108.8333,-633 106,-630.1667 106,-627.3333 106,-627.3333 106,-621.6667 106,-621.6667 106,-618.8333 108.8333,-616 111.6667,-616 111.6667,-616 154.3333,-616 154.3333,-616 157.1667,-616 160,-618.8333 160,-621.6667 160,-621.6667 160,-627.3333 160,-627.3333 160,-630.1667 157.1667,-633 154.3333,-633"/>
<text text-anchor="middle" x="133" y="-621.8" font-family="Helvetica,sans-Serif" font-size="9.00" fill="#000000">player.js</text>
</a>
</g>
</g>
<!-- renderer/index.js&#45;&gt;renderer/stores/player.js -->
<g id="edge29" class="edge">
<title>renderer/index.js&#45;&gt;renderer/stores/player.js</title>
<path fill="none" stroke="#000000" d="M70.003,-634.2995C78.1158,-633.0375 87.1631,-631.6302 95.8131,-630.2846"/>
<polygon fill="#000000" stroke="#000000" points="96.3619,-633.7414 105.705,-628.7459 95.2859,-626.8246 96.3619,-633.7414"/>
</g>
<!-- renderer/lib/artwork.js -->
<g id="node29" class="node">
<title>renderer/lib/artwork.js</title>
<g id="a_node29"><a xlink:href="renderer/lib/artwork.js" xlink:title="artwork.js">
<path fill="#ffffcc" stroke="#000000" d="M341.8592,-662C341.8592,-662 299.1784,-662 299.1784,-662 296.345,-662 293.5117,-659.1667 293.5117,-656.3333 293.5117,-656.3333 293.5117,-650.6667 293.5117,-650.6667 293.5117,-647.8333 296.345,-645 299.1784,-645 299.1784,-645 341.8592,-645 341.8592,-645 344.6926,-645 347.5259,-647.8333 347.5259,-650.6667 347.5259,-650.6667 347.5259,-656.3333 347.5259,-656.3333 347.5259,-659.1667 344.6926,-662 341.8592,-662"/>
<text text-anchor="middle" x="320.5188" y="-650.8" font-family="Helvetica,sans-Serif" font-size="9.00" fill="#000000">artwork.js</text>
</a>
</g>
</g>
<!-- renderer/lib/artwork.js&#45;&gt;crypto -->
<g id="edge32" class="edge">
<title>renderer/lib/artwork.js&#45;&gt;crypto</title>
<path fill="none" stroke="#c0c0c0" d="M329.427,-644.7004C337.7421,-635.8796 349.7137,-621.4896 355.5188,-606.5 413.2622,-457.3985 369.7462,-406.9684 391.0376,-248.5 402.1766,-165.5942 420.4557,-67.422 428.1756,-27.1484"/>
<polygon fill="#c0c0c0" stroke="#c0c0c0" points="431.6401,-27.6664 430.0973,-17.1845 424.7668,-26.3407 431.6401,-27.6664"/>
</g>
<!-- renderer/lib/artwork.js&#45;&gt;renderer/lib/artwork&#45;cache.js -->
<g id="edge30" class="edge">
<title>renderer/lib/artwork.js&#45;&gt;renderer/lib/artwork&#45;cache.js</title>
<path fill="none" stroke="#000000" d="M347.7404,-653.5C357.6915,-653.5 369.3003,-653.5 380.6574,-653.5"/>
<polygon fill="#000000" stroke="#000000" points="380.962,-657.0001 390.9619,-653.5 380.9619,-650.0001 380.962,-657.0001"/>
</g>
<!-- renderer/lib/metadata.js -->
<g id="node31" class="node">
<title>renderer/lib/metadata.js</title>
<g id="a_node31"><a xlink:href="renderer/lib/metadata.js" xlink:title="metadata.js">
<path fill="#ffffcc" stroke="#000000" d="M457.1567,-691C457.1567,-691 406.4366,-691 406.4366,-691 403.6033,-691 400.7699,-688.1667 400.7699,-685.3333 400.7699,-685.3333 400.7699,-679.6667 400.7699,-679.6667 400.7699,-676.8333 403.6033,-674 406.4366,-674 406.4366,-674 457.1567,-674 457.1567,-674 459.99,-674 462.8233,-676.8333 462.8233,-679.6667 462.8233,-679.6667 462.8233,-685.3333 462.8233,-685.3333 462.8233,-688.1667 459.99,-691 457.1567,-691"/>
<text text-anchor="middle" x="431.7966" y="-679.8" font-family="Helvetica,sans-Serif" font-size="9.00" fill="#000000">metadata.js</text>
</a>
</g>
</g>
<!-- renderer/lib/artwork.js&#45;&gt;renderer/lib/metadata.js -->
<g id="edge31" class="edge">
<title>renderer/lib/artwork.js&#45;&gt;renderer/lib/metadata.js</title>
<path fill="none" stroke="#000000" d="M347.7404,-660.5942C360.5809,-663.9405 376.1816,-668.0062 390.4401,-671.7221"/>
<polygon fill="#000000" stroke="#000000" points="389.9671,-675.2157 400.5266,-674.3507 391.7325,-668.4419 389.9671,-675.2157"/>
</g>
<!-- renderer/lib/library.js -->
<g id="node30" class="node">
<title>renderer/lib/library.js</title>
<g id="a_node30"><a xlink:href="renderer/lib/library.js" xlink:title="library.js">
<path fill="#ffffcc" stroke="#000000" d="M341.8521,-691C341.8521,-691 299.1855,-691 299.1855,-691 296.3521,-691 293.5188,-688.1667 293.5188,-685.3333 293.5188,-685.3333 293.5188,-679.6667 293.5188,-679.6667 293.5188,-676.8333 296.3521,-674 299.1855,-674 299.1855,-674 341.8521,-674 341.8521,-674 344.6855,-674 347.5188,-676.8333 347.5188,-679.6667 347.5188,-679.6667 347.5188,-685.3333 347.5188,-685.3333 347.5188,-688.1667 344.6855,-691 341.8521,-691"/>
<text text-anchor="middle" x="320.5188" y="-679.8" font-family="Helvetica,sans-Serif" font-size="9.00" fill="#000000">library.js</text>
</a>
</g>
</g>
<!-- renderer/lib/library.js&#45;&gt;fs -->
<g id="edge33" class="edge">
<title>renderer/lib/library.js&#45;&gt;fs</title>
<path fill="none" stroke="#c0c0c0" d="M344.7683,-691.0704C383.1851,-704.648 458.1463,-731.1414 501.7965,-746.5686"/>
<polygon fill="#c0c0c0" stroke="#c0c0c0" points="500.8,-749.9285 511.3948,-749.9609 503.1327,-743.3286 500.8,-749.9285"/>
</g>
<!-- renderer/lib/library.js&#45;&gt;path -->
<g id="edge34" class="edge">
<title>renderer/lib/library.js&#45;&gt;path</title>
<path fill="none" stroke="#c0c0c0" d="M327.82,-691.2265C346.1365,-713.1184 394.2667,-770.644 418.0677,-799.0911"/>
<polygon fill="#c0c0c0" stroke="#c0c0c0" points="415.5118,-801.4906 424.6132,-806.9143 420.8805,-796.9987 415.5118,-801.4906"/>
</g>
<!-- renderer/lib/metadata.js&#45;&gt;fs -->
<g id="edge35" class="edge">
<title>renderer/lib/metadata.js&#45;&gt;fs</title>
<path fill="none" stroke="#c0c0c0" d="M443.6991,-691.2182C461.212,-704.0458 494.1463,-728.169 515.4519,-743.7746"/>
<polygon fill="#c0c0c0" stroke="#c0c0c0" points="513.6564,-746.798 523.792,-749.8835 517.7928,-741.1508 513.6564,-746.798"/>
</g>
<!-- renderer/pages/main/index.js&#45;&gt;renderer/elements/footer/index.js -->
<g id="edge36" class="edge">
<title>renderer/pages/main/index.js&#45;&gt;renderer/elements/footer/index.js</title>
<path fill="none" stroke="#000000" d="M133.57,-126.3294C135.9052,-158.9689 146.2743,-275.5169 180,-364.5 212.4383,-450.0865 225.0492,-472.5712 285.2664,-541.5 289.417,-546.2512 294.455,-550.7899 299.408,-554.7778"/>
<polygon fill="#000000" stroke="#000000" points="297.4093,-557.6547 307.4919,-560.9094 301.6396,-552.0775 297.4093,-557.6547"/>
</g>
<!-- renderer/pages/main/index.js&#45;&gt;renderer/elements/header/index.js -->
<g id="edge37" class="edge">
<title>renderer/pages/main/index.js&#45;&gt;renderer/elements/header/index.js</title>
<path fill="none" stroke="#000000" d="M134.2254,-126.3388C138.9793,-159.5792 157.0818,-276.6572 180,-305.5 182.5106,-308.6596 185.5968,-311.4087 188.9536,-313.79"/>
<polygon fill="#000000" stroke="#000000" points="187.2964,-316.8766 197.6812,-318.9761 190.8723,-310.8588 187.2964,-316.8766"/>
</g>
<!-- renderer/pages/main/index.js&#45;&gt;renderer/elements/table/index.js -->
<g id="edge38" class="edge">
<title>renderer/pages/main/index.js&#45;&gt;renderer/elements/table/index.js</title>
<path fill="none" stroke="#000000" d="M141.6296,-126.3213C156.7878,-141.8164 188.3912,-174.1221 207.4436,-193.5979"/>
<polygon fill="#000000" stroke="#000000" points="205.0331,-196.1389 214.528,-200.8397 210.0369,-191.2438 205.0331,-196.1389"/>
</g>
<!-- renderer/pages/styles.js -->
<g id="node34" class="node">
<title>renderer/pages/styles.js</title>
<g id="a_node34"><a xlink:href="renderer/pages/styles.js" xlink:title="styles.js">
<path fill="#ffffcc" stroke="#000000" d="M244.3333,-116C244.3333,-116 201.6667,-116 201.6667,-116 198.8333,-116 196,-113.1667 196,-110.3333 196,-110.3333 196,-104.6667 196,-104.6667 196,-101.8333 198.8333,-99 201.6667,-99 201.6667,-99 244.3333,-99 244.3333,-99 247.1667,-99 250,-101.8333 250,-104.6667 250,-104.6667 250,-110.3333 250,-110.3333 250,-113.1667 247.1667,-116 244.3333,-116"/>
<text text-anchor="middle" x="223" y="-104.8" font-family="Helvetica,sans-Serif" font-size="9.00" fill="#000000">styles.js</text>
</a>
</g>
</g>
<!-- renderer/pages/main/index.js&#45;&gt;renderer/pages/styles.js -->
<g id="edge39" class="edge">
<title>renderer/pages/main/index.js&#45;&gt;renderer/pages/styles.js</title>
<path fill="none" stroke="#000000" d="M160.003,-114.4997C168.0277,-113.608 176.9665,-112.6148 185.5309,-111.6632"/>
<polygon fill="#000000" stroke="#000000" points="186.1527,-115.1158 195.705,-110.5328 185.3796,-108.1586 186.1527,-115.1158"/>
</g>
<!-- renderer/pages/preferences/index.js -->
<g id="node33" class="node">
<title>renderer/pages/preferences/index.js</title>
<g id="a_node33"><a xlink:href="renderer/pages/preferences/index.js" xlink:title="index.js">
<path fill="#ffffcc" stroke="#000000" d="M154.3333,-67C154.3333,-67 111.6667,-67 111.6667,-67 108.8333,-67 106,-64.1667 106,-61.3333 106,-61.3333 106,-55.6667 106,-55.6667 106,-52.8333 108.8333,-50 111.6667,-50 111.6667,-50 154.3333,-50 154.3333,-50 157.1667,-50 160,-52.8333 160,-55.6667 160,-55.6667 160,-61.3333 160,-61.3333 160,-64.1667 157.1667,-67 154.3333,-67"/>
<text text-anchor="middle" x="133" y="-55.8" font-family="Helvetica,sans-Serif" font-size="9.00" fill="#000000">index.js</text>
</a>
</g>
</g>
<!-- renderer/pages/preferences/index.js&#45;&gt;renderer/elements/button/index.js -->
<g id="edge40" class="edge">
<title>renderer/pages/preferences/index.js&#45;&gt;renderer/elements/button/index.js</title>
<path fill="none" stroke="#000000" d="M143.1906,-67.0498C151.1802,-74.3245 161.9297,-85.4816 168,-97.5 179.8678,-120.9967 161.2687,-137.0047 180,-155.5 236.5406,-211.3284 300.4882,-132.1827 355.5188,-189.5 428.3712,-265.3797 330.4975,-337.4762 391.0376,-423.5 393.2011,-426.5743 395.9338,-429.2594 398.9555,-431.595"/>
<polygon fill="#000000" stroke="#000000" points="397.1204,-434.5757 407.4369,-436.9882 400.8765,-428.6688 397.1204,-434.5757"/>
</g>
<!-- renderer/pages/preferences/index.js&#45;&gt;renderer/elements/form/styles.js -->
<g id="edge41" class="edge">
<title>renderer/pages/preferences/index.js&#45;&gt;renderer/elements/form/styles.js</title>
<path fill="none" stroke="#000000" d="M160.0261,-57.0197C186.1719,-56.606 226.3748,-58.7059 258,-72.5 342.1597,-109.2083 401.6688,-209.919 423.0653,-250.8525"/>
<polygon fill="#000000" stroke="#000000" points="420.0156,-252.5766 427.6757,-259.896 426.2519,-249.3972 420.0156,-252.5766"/>
</g>
<!-- renderer/pages/preferences/index.js&#45;&gt;renderer/elements/header/index.js -->
<g id="edge42" class="edge">
<title>renderer/pages/preferences/index.js&#45;&gt;renderer/elements/header/index.js</title>
<path fill="none" stroke="#000000" d="M144.0052,-67.1219C152.2287,-74.2772 162.8948,-85.2378 168,-97.5 185.7954,-140.2426 154.7138,-266.7158 180,-305.5 181.9364,-308.4701 184.4061,-311.0592 187.1802,-313.3121"/>
<polygon fill="#000000" stroke="#000000" points="185.325,-316.2807 195.6138,-318.8087 189.1471,-310.4163 185.325,-316.2807"/>
</g>
<!-- renderer/pages/preferences/index.js&#45;&gt;renderer/pages/styles.js -->
<g id="edge43" class="edge">
<title>renderer/pages/preferences/index.js&#45;&gt;renderer/pages/styles.js</title>
<path fill="none" stroke="#000000" d="M148.6768,-67.0351C162.2731,-74.4376 182.1951,-85.284 197.9917,-93.8844"/>
<polygon fill="#000000" stroke="#000000" points="196.7446,-97.1905 207.2009,-98.8983 200.0918,-91.0426 196.7446,-97.1905"/>
</g>
<!-- renderer/stores/library.js&#45;&gt;renderer/lib/library.js -->
<g id="edge44" class="edge">
<title>renderer/stores/library.js&#45;&gt;renderer/lib/library.js</title>
<path fill="none" stroke="#000000" d="M160.2668,-657.7168C192.625,-662.7211 246.7524,-671.0919 283.0344,-676.703"/>
<polygon fill="#000000" stroke="#000000" points="282.8016,-680.2085 293.219,-678.2781 283.8715,-673.2908 282.8016,-680.2085"/>
</g>
<!-- renderer/stores/player.js&#45;&gt;renderer/lib/artwork.js -->
<g id="edge45" class="edge">
<title>renderer/stores/player.js&#45;&gt;renderer/lib/artwork.js</title>
<path fill="none" stroke="#000000" d="M160.2668,-628.7168C192.625,-633.7211 246.7524,-642.0919 283.0344,-647.703"/>
<polygon fill="#000000" stroke="#000000" points="282.8016,-651.2085 293.219,-649.2781 283.8715,-644.2908 282.8016,-651.2085"/>
</g>
<!-- test/index.js -->
<g id="node38" class="node">
<title>test/index.js</title>
<g id="a_node38"><a xlink:href="test/index.js" xlink:title="index.js">
<path fill="#ffffcc" stroke="#000000" d="M341.8521,-775C341.8521,-775 299.1855,-775 299.1855,-775 296.3521,-775 293.5188,-772.1667 293.5188,-769.3333 293.5188,-769.3333 293.5188,-763.6667 293.5188,-763.6667 293.5188,-760.8333 296.3521,-758 299.1855,-758 299.1855,-758 341.8521,-758 341.8521,-758 344.6855,-758 347.5188,-760.8333 347.5188,-763.6667 347.5188,-763.6667 347.5188,-769.3333 347.5188,-769.3333 347.5188,-772.1667 344.6855,-775 341.8521,-775"/>
<text text-anchor="middle" x="320.5188" y="-763.8" font-family="Helvetica,sans-Serif" font-size="9.00" fill="#000000">index.js</text>
</a>
</g>
</g>
<!-- test/index.js&#45;&gt;path -->
<g id="edge46" class="edge">
<title>test/index.js&#45;&gt;path</title>
<path fill="none" stroke="#c0c0c0" d="M339.9019,-775.0351C357.347,-782.7169 383.2147,-794.1075 403.0645,-802.8481"/>
<polygon fill="#c0c0c0" stroke="#c0c0c0" points="401.6997,-806.0714 412.2623,-806.8983 404.5208,-799.665 401.6997,-806.0714"/>
</g>
</g>
</svg>
